<svg xmlns="http://www.w3.org/2000/svg" viewBox="0 0 512 512" role="img" aria-label="MMT">
  <defs>
    <radialGradient id="glow" cx="50%" cy="38%" r="62%">
      <stop offset="0%" stop-color="#54d8ff"/>
      <stop offset="42%" stop-color="#1f7fc3"/>
      <stop offset="100%" stop-color="#061b3f"/>
    </radialGradient>
    <linearGradient id="ring" x1="110" y1="86" x2="410" y2="430" gradientUnits="userSpaceOnUse">
      <stop offset="0%" stop-color="#d9f7ff"/>
      <stop offset="45%" stop-color="#4bb6f1"/>
      <stop offset="100%" stop-color="#0b4f91"/>
    </linearGradient>
    <filter id="softShadow" x="-20%" y="-20%" width="140%" height="140%">
      <feDropShadow dx="0" dy="18" stdDeviation="16" flood-color="#02112b" flood-opacity="0.38"/>
    </filter>
  </defs>
  <rect width="512" height="512" rx="112" fill="#071b3d"/>
  <circle cx="256" cy="236" r="202" fill="url(#glow)" opacity="0.96"/>
  <circle cx="256" cy="236" r="167" fill="none" stroke="url(#ring)" stroke-width="14" opacity="0.92"/>
  <circle cx="256" cy="236" r="118" fill="none" stroke="#d8f5ff" stroke-width="2" opacity="0.5"/>
  <path d="M256 82 273 183 374 166 290 224 348 310 256 266 164 310 222 224 138 166 239 183Z" fill="#e8fbff" opacity="0.16"/>
  <g filter="url(#softShadow)">
    <rect x="108" y="190" width="296" height="112" rx="34" fill="#eefcff" opacity="0.95"/>
    <text x="256" y="265" text-anchor="middle" font-family="Arial, Helvetica, sans-serif" font-size="78" font-weight="800" letter-spacing="4" fill="#0a4d88">MMT</text>
  </g>
  <g>
    <circle cx="130" cy="364" r="18" fill="#2fa7ff"/>
    <circle cx="213" cy="394" r="18" fill="#74d9ff"/>
    <circle cx="299" cy="394" r="18" fill="#f7d274"/>
    <circle cx="382" cy="364" r="18" fill="#ff7b65"/>
  </g>
  <path d="M92 414c44 34 99 54 164 54s120-20 164-54" fill="none" stroke="#9deaff" stroke-width="8" stroke-linecap="round" opacity="0.52"/>
</svg>
